<svg xmlns="http://www.w3.org/2000/svg" viewBox="0 0 67.3 67.3"><style type="text/css">  
	.st0{fill:#FFFFFF;}
	.st1{fill:none;stroke:#FFFFFF;stroke-width:0.545;stroke-miterlimit:3.864;}
	.st2{fill:none;stroke:#FFFFFF;stroke-width:1.219;}
</style><path class="st0" d="M35.8 23.2c0-4.3 3.5-7.8 7.8-7.8 4.3 0 7.8 3.5 7.8 7.8 0 4.3-3.5 7.8-7.8 7.8C39.3 31 35.8 27.5 35.8 23.2"/><path class="st0" d="M35.8 43.3c0-4.3 3.5-7.8 7.8-7.8 4.3 0 7.8 3.5 7.8 7.8 0 4.3-3.5 7.8-7.8 7.8C39.3 51 35.8 47.6 35.8 43.3"/><path class="st0" d="M15.7 43.3c0-4.3 3.5-7.8 7.8-7.8 4.3 0 7.8 3.5 7.8 7.8 0 4.3-3.5 7.8-7.8 7.8C19.1 51 15.7 47.6 15.7 43.3"/><path class="st1" d="M33.7 23c0-5.6 4.5-10.1 10.1-10.1 5.6 0 10.1 4.5 10.1 10.1 0 5.6-4.5 10.1-10.1 10.1C38.2 33.1 33.7 28.6 33.7 23zM13.5 43.2c0-5.6 4.5-10.1 10.1-10.1s10.1 4.5 10.1 10.1c0 5.6-4.5 10.1-10.1 10.1C18 53.3 13.5 48.8 13.5 43.2zM33.7 43.2c0-5.6 4.5-10.1 10.1-10.1 5.6 0 10.1 4.5 10.1 10.1 0 5.6-4.5 10.1-10.1 10.1C38.2 53.3 33.7 48.8 33.7 43.2zM33.7 22.7v20.5"/><path class="st0" d="M15 23.2c0-4.6 3.8-8.4 8.4-8.4 4.6 0 8.4 3.8 8.4 8.4 0 4.6-3.8 8.4-8.4 8.4C18.8 31.6 15 27.8 15 23.2"/><circle class="st2" cx="33.7" cy="33.7" r="33.1"/></svg>