<?xml version="1.0" encoding="utf-8"?>
<!-- Generator: Adobe Illustrator 19.2.1, SVG Export Plug-In . SVG Version: 6.00 Build 0)  -->
<svg version="1.1" id="Layer_1" xmlns="http://www.w3.org/2000/svg" xmlns:xlink="http://www.w3.org/1999/xlink" x="0px" y="0px"
	 viewBox="0 0 67.3 67.3" style="enable-background:new 0 0 67.3 67.3;" xml:space="preserve">
<style type="text/css">
	.st0{fill:none;stroke:#FFFFFF;stroke-width:1.219;}
	.st1{fill:#FFFFFF;}
</style>
<g>
	<circle class="st0" cx="33.7" cy="33.5" r="32.8"/>
	<g>
		<path class="st1" d="M43.6,33.6c0.2-0.1,0.5-0.2,0.7-0.3C44.1,33.4,43.9,33.5,43.6,33.6 M46.9,31.4c0,0,0.1-0.1,0.1-0.1
			C47,31.3,47,31.3,46.9,31.4"/>
		<g>
			<path class="st1" d="M30.7,26.6C30.6,26.6,30.6,26.6,30.7,26.6L30.7,26.6L30.7,26.6z"/>
			<path class="st1" d="M36.6,26.6L36.6,26.6C36.6,26.6,36.6,26.6,36.6,26.6L36.6,26.6z"/>
			<path class="st1" d="M39.7,41.6c1.1-0.9,2-1.9,2.6-3.2c1.4,1.3,2.2,2.9,2.5,4.4c2.6,0,5.8-1,9.5-4.1c0,0-2.2-5.6-6.8-7.9
				c-0.1,0.1-0.3,0.3-0.4,0.4c0,0,0,0,0,0c0,0,0,0,0,0c-0.1,0.1-0.1,0.1-0.2,0.2c-0.1,0.1-0.2,0.2-0.3,0.3c-0.6,0.5-1.5,1.1-2.2,1.5
				c0,0-0.1,0-0.1,0c-0.1,0-0.2,0.1-0.2,0.1c0,0-0.1,0-0.1,0.1c-0.1,0-0.1,0.1-0.2,0.1c0,0,0,0-0.1,0c-0.1,0-0.2,0.1-0.3,0.1
				c0-1.3-0.3-2.6-0.9-3.8c1.9-0.2,3.6,0.2,5,0.9c1.8-2,3.3-5.3,3.1-10.5c0,0-6-1.8-10.7,0.5c0.4,2.5-0.1,4.4-0.5,5.3
				c-1-0.7-2.1-1.3-3.3-1.6c1-1.8,2.3-2.9,3.8-3.7c-0.5-2.7-2-5.9-6.3-9c0,0-5.4,3.7-6.3,9c1.5,0.7,2.9,1.9,3.9,3.7
				c-1.2,0.3-2.3,0.8-3.2,1.5c-0.8-1.8-1-3.6-0.7-5.2c-4.6-2.3-10.5-0.4-10.5-0.4c-0.2,5.2,1.3,8.5,3.1,10.5c1.4-0.7,3-1.1,4.9-0.9
				c-0.5,1.1-0.8,2.4-0.9,3.7c-1-0.4-2.6-1.2-4-2.8c-4.5,2.3-6.7,7.9-6.7,7.9c3.6,3.1,6.9,4.1,9.4,4.1c0.4-1.5,1.1-3,2.4-4.3
				c0.6,1.2,1.5,2.3,2.6,3.1c-1.1,0.6-2.8,1.2-5,1.2c-1.2,5,1.9,10.4,1.9,10.4c4.8-0.9,7.6-2.9,9.2-4.9c-1.4-1.8-2-3.6-2.2-4.8
				c0.7,0.1,1.4,0.2,2.1,0.2c0.8,0,1.5-0.1,2.2-0.3c-0.2,1.2-0.7,3-2.1,4.8c1.6,2,4.4,4,9.2,4.9c0,0,3.1-5.3,1.9-10.4
				C42.5,42.9,40.7,42.1,39.7,41.6z M34.3,41.6c-0.2,0-0.5,0-0.8,0c-0.2,0-0.5,0-0.7,0c-1.7-0.1-3.2-0.8-4.4-1.9
				c-0.5-0.5-1-1-1.4-1.6c-0.8-1.2-1.3-2.7-1.3-4.3c0-0.4,0-0.8,0.1-1.2c0.1-0.7,0.3-1.3,0.5-1.9c0.8-1.9,2.3-3.3,4.2-4.1
				c0,0,0.1,0,0.1,0c0.9-0.4,1.9-0.6,2.9-0.6c1.1,0,2.1,0.2,3,0.6h0.1l0,0c1.9,0.8,3.4,2.4,4.2,4.4c0.2,0.4,0.3,0.9,0.4,1.4
				c0.1,0.5,0.1,0.9,0.1,1.4c0,1.6-0.5,3.1-1.3,4.3c-0.3,0.5-0.7,0.9-1.2,1.3C37.6,40.6,36.1,41.4,34.3,41.6z"/>
		</g>
		<path class="st1" d="M39.1,30.6h-1.8l0-1.8c0-0.2-0.2-0.4-0.4-0.4c-0.2,0-0.4,0.2-0.4,0.4v1.8h-1.8c-0.2,0-0.4,0.2-0.4,0.4
			c0,0.2,0.2,0.4,0.4,0.4h1.8v1.8c0,0.2,0.2,0.4,0.4,0.4c0.2,0,0.4-0.2,0.4-0.4v-1.8h1.8c0.2,0,0.4-0.2,0.4-0.4
			C39.4,30.8,39.3,30.6,39.1,30.6z"/>
	</g>
</g>
</svg>
