<svg xmlns="http://www.w3.org/2000/svg" viewBox="0 0 67.3 67.3"><style type="text/css">  
	.st0{fill:none;stroke:#000000;stroke-width:1.219;}
	.st1{fill:none;stroke:#FFFFFF;stroke-width:1.219;}
	.st2{fill:#FFFFFF;}
</style><circle class="st0" cx="33.7" cy="33.7" r="33.1"/><circle class="st1" cx="33.7" cy="33.7" r="33.1"/><path class="st2" d="M42.7 36.2c-0.3 2.6-1.2 4.8-2.7 6.4 -1.6 1.7-3.7 2.6-6.3 2.6 -3.1 0-5.7-1.1-7.5-3.4 -1.7-2.2-2.6-4.9-2.6-8.2 0-3.3 0.9-6 2.6-8.1 1.9-2.3 4.4-3.4 7.5-3.4 2.2 0 4.1 0.6 5.7 1.9 1.7 1.3 2.7 3.1 2.9 5.3h-2c-0.3-1.6-1.1-2.9-2.3-3.9 -1.2-1-2.6-1.5-4.3-1.5 -2.6 0-4.6 1-6.1 3 -1.3 1.8-2 4.1-2 6.8 0 2.7 0.7 5 2 6.8 1.5 2 3.5 3 6.1 3 1.9 0 3.5-0.7 4.8-2.1 1.2-1.3 1.9-3 2.1-5H42.7z"/><path class="st2" d="M50.7 22.5L42 44.7h2.2l2.6-6.9h9.8l2.6 6.9h2.2L53 22.5H50.7zM51.7 24.6L55.9 36h-8.5L51.7 24.6z"/><path class="st2" d="M22.7 38.8c0 2.2-0.9 3.8-2.6 5 -1.4 0.9-3.3 1.4-5.6 1.4 -2.6 0-4.7-0.6-6.2-1.8 -1.6-1.3-2.4-3.3-2.4-5.9h2c0 4 2.3 6 7 6 1.4 0 2.7-0.4 3.8-1.1 1.3-0.9 1.9-2 1.9-3.4 0-1.8-1.2-3-3.7-3.8 -2.2-0.6-4.5-1.2-6.7-1.8 -2.4-1-3.6-2.6-3.6-5 0-2 0.8-3.6 2.3-4.7 1.4-1 3.1-1.5 5.1-1.5 2.2 0 4 0.6 5.5 1.7 1.6 1.3 2.4 3 2.4 5.2h-2c-0.1-1.6-0.7-2.9-1.9-3.8 -1.1-0.9-2.4-1.3-4-1.3 -1.6 0-2.8 0.3-3.8 1 -1.1 0.8-1.6 1.9-1.6 3.4 0 1.7 1.2 2.8 3.6 3.5 2.2 0.6 4.5 1.2 6.7 1.8C21.5 34.6 22.7 36.3 22.7 38.8"/></svg>