<?xml version="1.0" encoding="utf-8"?>
<!-- Generator: Adobe Illustrator 19.2.1, SVG Export Plug-In . SVG Version: 6.00 Build 0)  -->
<svg version="1.1" xmlns="http://www.w3.org/2000/svg" xmlns:xlink="http://www.w3.org/1999/xlink" x="0px" y="0px"
	 viewBox="0 0 67.3 67.3" style="enable-background:new 0 0 67.3 67.3;" xml:space="preserve">
<style type="text/css">
	.st0{display:none;}
	.st1{display:inline;fill:#F1F2F2;}
	.st2{fill:none;stroke:#FFFFFF;stroke-width:1.219;}
	.st3{fill:#FFFFFF;}
</style>
<g id="Layer_1" class="st0">
	<rect class="st1" width="67.3" height="67.3"/>
</g>
<g id="Layer_2">
	<g>
		<g>
			<path class="st3" d="M43.6,33.6c0.2-0.1,0.5-0.2,0.7-0.3C44.1,33.4,43.9,33.5,43.6,33.6 M46.9,31.4l0.1-0.1
				C47,31.3,47,31.3,46.9,31.4"/>
			<g>
				<path class="st3" d="M39.7,41.6c1.1-0.9,2-1.9,2.6-3.2c1.4,1.3,2.2,2.9,2.5,4.4c2.6,0,5.8-1,9.5-4.1c0,0-2.2-5.6-6.8-7.9
					c-0.1,0.1-0.3,0.3-0.4,0.4l0,0l0,0c-0.1,0.1-0.1,0.1-0.2,0.2c-0.1,0.1-0.2,0.2-0.3,0.3c-0.6,0.5-1.5,1.1-2.2,1.5h-0.1
					c-0.1,0-0.2,0.1-0.2,0.1s-0.1,0-0.1,0.1c-0.1,0-0.1,0.1-0.2,0.1c0,0,0,0-0.1,0c-0.1,0-0.2,0.1-0.3,0.1c0-1.3-0.3-2.6-0.9-3.8
					c1.9-0.2,3.6,0.2,5,0.9c1.8-2,3.3-5.3,3.1-10.5c0,0-6-1.8-10.7,0.5c0.4,2.5-0.1,4.4-0.5,5.3c-1-0.7-2.1-1.3-3.3-1.6
					c1-1.8,2.3-2.9,3.8-3.7c-0.5-2.7-2-5.9-6.3-9c0,0-5.4,3.7-6.3,9c1.5,0.7,2.9,1.9,3.9,3.7c-1.2,0.3-2.3,0.8-3.2,1.5
					c-0.8-1.8-1-3.6-0.7-5.2c-4.6-2.3-10.5-0.4-10.5-0.4c-0.2,5.2,1.3,8.5,3.1,10.5c1.4-0.7,3-1.1,4.9-0.9c-0.5,1.1-0.8,2.4-0.9,3.7
					c-1-0.4-2.6-1.2-4-2.8c-4.5,2.3-6.7,7.9-6.7,7.9c3.6,3.1,6.9,4.1,9.4,4.1c0.4-1.5,1.1-3,2.4-4.3c0.6,1.2,1.5,2.3,2.6,3.1
					c-1.1,0.6-2.8,1.2-5,1.2c-1.2,5,1.9,10.4,1.9,10.4c4.8-0.9,7.6-2.9,9.2-4.9c-1.4-1.8-2-3.6-2.2-4.8c0.7,0.1,1.4,0.2,2.1,0.2
					c0.8,0,1.5-0.1,2.2-0.3c-0.2,1.2-0.7,3-2.1,4.8c1.6,2,4.4,4,9.2,4.9c0,0,3.1-5.3,1.9-10.4C42.5,42.9,40.7,42.1,39.7,41.6z
					 M34.3,41.6c-0.2,0-0.5,0-0.8,0c-0.2,0-0.5,0-0.7,0c-1.7-0.1-3.2-0.8-4.4-1.9c-0.5-0.5-1-1-1.4-1.6c-0.8-1.2-1.3-2.7-1.3-4.3
					c0-0.4,0-0.8,0.1-1.2c0.1-0.7,0.3-1.3,0.5-1.9c0.8-1.9,2.3-3.3,4.2-4.1h0.1c0.9-0.4,1.9-0.6,2.9-0.6c1.1,0,2.1,0.2,3,0.6h0.1
					l0,0c1.9,0.8,3.4,2.4,4.2,4.4c0.2,0.4,0.3,0.9,0.4,1.4c0.1,0.5,0.1,0.9,0.1,1.4c0,1.6-0.5,3.1-1.3,4.3c-0.3,0.5-0.7,0.9-1.2,1.3
					C37.6,40.6,36.1,41.4,34.3,41.6z"/>
			</g>
			<path class="st3" d="M39.1,30.6h-1.8v-1.8c0-0.2-0.2-0.4-0.4-0.4c-0.2,0-0.4,0.2-0.4,0.4v1.8h-1.8c-0.2,0-0.4,0.2-0.4,0.4
				s0.2,0.4,0.4,0.4h1.8v1.8c0,0.2,0.2,0.4,0.4,0.4c0.2,0,0.4-0.2,0.4-0.4v-1.8h1.8c0.2,0,0.4-0.2,0.4-0.4
				C39.4,30.8,39.3,30.6,39.1,30.6z"/>
		</g>
		<g>
			<path class="st3" d="M33.7,67.1c-18.4,0-33.4-15-33.4-33.4s15-33.4,33.4-33.4s33.4,15,33.4,33.4C67.1,52,52.1,67.1,33.7,67.1z
				 M33.7,1.4C15.9,1.4,1.6,15.8,1.6,33.7c0,17.7,14.5,32.2,32.2,32.2c17.7,0,32.2-14.5,32.2-32.2C65.8,15.8,51.5,1.4,33.7,1.4z"/>
		</g>
	</g>
</g>
</svg>
