<?xml version="1.0" encoding="utf-8"?>
<!-- Generator: Adobe Illustrator 19.2.1, SVG Export Plug-In . SVG Version: 6.00 Build 0)  -->
<svg version="1.1" xmlns="http://www.w3.org/2000/svg" xmlns:xlink="http://www.w3.org/1999/xlink" x="0px" y="0px"
	 viewBox="0 0 67.3 67.3" style="enable-background:new 0 0 67.3 67.3;" xml:space="preserve">
<style type="text/css">
	.st0{display:none;}
	.st1{display:inline;fill:#F1F2F2;}
	.st2{fill:none;stroke:#FFFFFF;stroke-width:1.219;}
	.st3{fill:#FFFFFF;}
</style>
<g id="Layer_1" class="st0">
	<rect class="st1" width="67.3" height="67.3"/>
</g>
<g id="Layer_2">
	<g id="Layer_2_5_">
		<rect x="11.5" y="21.3" class="st3" width="6.4" height="23.1"/>
		<polyline class="st3" points="31.2,44.4 31.2,24.9 31.3,24.8 36.4,44.4 42.2,44.4 47.5,25 47.6,25 47.6,44.4 53.2,44.4 53.2,21.3 
			43.3,21.3 39.6,37 39.5,37 35.8,21.3 25.7,21.3 25.7,44.4 31.2,44.4 		"/>
		<g>
			<path class="st3" d="M33.7,67.1c-18.4,0-33.4-15-33.4-33.4s15-33.4,33.4-33.4s33.4,15,33.4,33.4C67.1,52,52.1,67.1,33.7,67.1z
				 M33.7,1.4C15.9,1.4,1.6,15.8,1.6,33.7c0,17.7,14.5,32.2,32.2,32.2c17.7,0,32.2-14.5,32.2-32.2C65.8,15.8,51.5,1.4,33.7,1.4z"/>
		</g>
	</g>
</g>
</svg>
