<?xml version="1.0" encoding="utf-8"?>
<!-- Generator: Adobe Illustrator 19.2.1, SVG Export Plug-In . SVG Version: 6.00 Build 0)  -->
<svg version="1.1" xmlns="http://www.w3.org/2000/svg" xmlns:xlink="http://www.w3.org/1999/xlink" x="0px" y="0px"
	 viewBox="0 0 67.3 67.3" style="enable-background:new 0 0 67.3 67.3;" xml:space="preserve">
<style type="text/css">
	.st0{display:none;}
	.st1{display:inline;fill:#F1F2F2;}
	.st2{fill:none;stroke:#FFFFFF;stroke-width:1.219;}
	.st3{fill:#FFFFFF;}
</style>
<g id="Layer_1" class="st0">
	<rect class="st1" width="67.3" height="67.3"/>
</g>
<g id="Layer_2">
	<g id="Layer_2_6_">
		<path class="st3" d="M51.8,22c-2.2-2.5-5.5-3.7-9-3.7c-2.9,0-6.2,0.9-9.1,2.5c-2.9-1.7-6.2-2.5-9.1-2.5c-3.5,0-6.8,1.2-9,3.7
			c-5,5.6-3,15.2,4.2,21.6c3.9,3.4,8.6,5.3,12.9,5.3c0.4,0,0.8,0,1.1,0c0.4,0,0.8,0,1.1,0c4.3,0,9-1.8,12.9-5.3
			C54.8,37.3,56.6,27.6,51.8,22 M21.4,41.5c-6-5.4-7.8-13.3-3.8-17.6c1.6-1.8,4-2.8,6.9-2.8c2.1,0,4.4,0.5,6.5,1.5
			c-0.4,0.3-0.7,0.6-1.1,0.9c-6.7,6-8.7,14.8-5,20.5C23.6,43.3,22.5,42.5,21.4,41.5z M39.4,43.3C38,44.8,36,45.8,33.7,46
			c-2.3-0.2-4.4-1.2-5.8-2.7c-1.8-2-2.4-4.9-1.8-8.1c0.7-3.4,2.7-6.9,5.7-9.5c0.6-0.5,1.2-1,1.9-1.5c0.7,0.4,1.3,0.9,1.9,1.5
			c3,2.6,5.1,6.1,5.7,9.5C41.9,38.4,41.1,41.2,39.4,43.3z M45.8,41.5c-1.1,0.9-2.2,1.7-3.4,2.4c3.7-5.7,1.7-14.5-5-20.5
			c-0.4-0.3-0.7-0.6-1.1-0.9c2.1-1,4.4-1.5,6.5-1.5l0,0c2.8,0,5.4,1,6.9,2.8C53.5,28.3,51.8,36.2,45.8,41.5z"/>
		<g>
			<path class="st3" d="M33.7,67.1c-18.4,0-33.4-15-33.4-33.4s15-33.4,33.4-33.4s33.4,15,33.4,33.4C67.1,52,52.1,67.1,33.7,67.1z
				 M33.7,1.4C15.9,1.4,1.6,15.8,1.6,33.7c0,17.7,14.5,32.2,32.2,32.2c17.7,0,32.2-14.5,32.2-32.2C65.8,15.8,51.5,1.4,33.7,1.4z"/>
		</g>
	</g>
</g>
</svg>
