<?xml version="1.0" encoding="utf-8"?>
<!-- Generator: Adobe Illustrator 19.2.1, SVG Export Plug-In . SVG Version: 6.00 Build 0)  -->
<svg version="1.1" xmlns="http://www.w3.org/2000/svg" xmlns:xlink="http://www.w3.org/1999/xlink" x="0px" y="0px"
	 viewBox="0 0 67.3 67.3" style="enable-background:new 0 0 67.3 67.3;" xml:space="preserve">
<style type="text/css">
	.st0{display:none;}
	.st1{display:inline;fill:#F1F2F2;}
	.st2{fill:none;stroke:#FFFFFF;stroke-width:1.219;}
	.st3{fill:#FFFFFF;}
</style>
<g id="Layer_1" class="st0">
	<rect class="st1" width="67.3" height="67.3"/>
</g>
<g id="Layer_2">
	<g id="Layer_2_3_">
		<g>
			<path class="st3" d="M24.3,21l9.3,11.2l-2.8,3v14.7H16.1V33.7c0,0,0.1-2.6,1.7-4.7C19.4,26.9,24.3,21,24.3,21"/>
			<path class="st3" d="M22.2,14.4l14.6,18.2v17.2h14.3V32.2c0,0-0.1-1.9-1.1-3.5c-1-1.5-11.7-14.3-11.7-14.3L22.2,14.4"/>
			<g>
				<path class="st3" d="M33.7,67.1c-18.4,0-33.4-15-33.4-33.4s15-33.4,33.4-33.4s33.4,15,33.4,33.4C67.1,52,52.1,67.1,33.7,67.1z
					 M33.7,1.4C15.9,1.4,1.6,15.8,1.6,33.7c0,17.7,14.5,32.2,32.2,32.2s32.2-14.5,32.2-32.2C65.8,15.8,51.5,1.4,33.7,1.4z"/>
			</g>
		</g>
	</g>
</g>
</svg>
