<?xml version="1.0" encoding="utf-8"?>
<!-- Generator: Adobe Illustrator 19.2.1, SVG Export Plug-In . SVG Version: 6.00 Build 0)  -->
<svg version="1.1" xmlns="http://www.w3.org/2000/svg" xmlns:xlink="http://www.w3.org/1999/xlink" x="0px" y="0px"
	 viewBox="0 0 67.3 67.3" style="enable-background:new 0 0 67.3 67.3;" xml:space="preserve">
<style type="text/css">
	.st0{display:none;}
	.st1{display:inline;fill:#F1F2F2;}
	.st2{fill:none;stroke:#FFFFFF;stroke-width:1.219;}
	.st3{fill:#FFFFFF;}
</style>
<g id="Layer_1" class="st0">
	<rect class="st1" width="67.3" height="67.3"/>
</g>
<g id="Layer_2">
	<g id="Layer_2_4_">
		<g>
			<g>
				<path class="st3" d="M33.7,67.1c-18.4,0-33.4-15-33.4-33.4s15-33.4,33.4-33.4s33.4,15,33.4,33.4C67.1,52,52.1,67.1,33.7,67.1z
					 M33.7,1.4C15.9,1.4,1.6,15.8,1.6,33.7c0,17.7,14.5,32.2,32.2,32.2s32.2-14.5,32.2-32.2C65.8,15.8,51.5,1.4,33.7,1.4z"/>
			</g>
			<g>
				<path class="st3" d="M33.7,67.1c-18.4,0-33.4-15-33.4-33.4s15-33.4,33.4-33.4s33.4,15,33.4,33.4C67.1,52,52.1,67.1,33.7,67.1z
					 M33.7,1.4C15.9,1.4,1.6,15.8,1.6,33.7c0,17.7,14.5,32.2,32.2,32.2s32.2-14.5,32.2-32.2C65.8,15.8,51.5,1.4,33.7,1.4z"/>
			</g>
			<path class="st3" d="M42.7,36.1c-0.3,2.6-1.1,4.8-2.6,6.3c-1.6,1.7-3.6,2.5-6.2,2.5c-3.1,0-5.6-1.1-7.5-3.4
				c-1.7-2.1-2.6-4.9-2.6-8.1s0.9-6,2.6-8.1c1.8-2.2,4.4-3.3,7.5-3.3c2.1,0,4,0.6,5.7,1.9c1.7,1.3,2.6,3,2.9,5.3h-2
				c-0.3-1.6-1.1-2.9-2.3-3.8c-1.2-1-2.6-1.4-4.3-1.4c-2.5,0-4.6,1-6.1,2.9c-1.3,1.8-2,4-2,6.8s0.7,5,2,6.8c1.4,2,3.4,2.9,6.1,2.9
				c1.9,0,3.5-0.7,4.8-2.1c1.2-1.3,1.9-2.9,2-5h2"/>
			<path class="st3" d="M51.7,24.5l4.2,11.2h-8.4L51.7,24.5 M50.6,22.5l-8.6,22h2.2l2.5-6.9h9.7l2.6,6.9h2.1l-8.4-22H50.6z"/>
			<path class="st3" d="M22.8,38.7c0,2.2-0.9,3.8-2.6,5c-1.4,0.9-3.2,1.4-5.6,1.4c-2.6,0-4.7-0.6-6.1-1.8C6.9,42,6.1,40,6.1,37.4h2
				c0,3.9,2.3,6,7,6c1.4,0,2.6-0.4,3.7-1.1c1.2-0.8,1.9-2,1.9-3.3c0-1.7-1.2-3-3.6-3.7c-2.2-0.6-4.5-1.2-6.7-1.8
				c-2.4-1-3.6-2.6-3.6-5c0-2,0.7-3.5,2.2-4.7c1.3-1,3-1.5,5.1-1.5c2.2,0,4,0.6,5.5,1.7c1.6,1.2,2.4,2.9,2.4,5.2h-2
				c-0.1-1.6-0.7-2.8-1.8-3.7c-1-1.1-2.3-1.5-3.9-1.5c-1.5,0-2.8,0.3-3.7,1c-1.1,0.8-1.6,1.9-1.6,3.4c0,1.6,1.2,2.8,3.6,3.5
				c2.2,0.6,4.5,1.2,6.7,1.7C21.6,34.5,22.8,36.2,22.8,38.7"/>
		</g>
	</g>
</g>
</svg>
